<svg width="1440" height="880" viewBox="0 0 1440 880" fill="none" xmlns="http://www.w3.org/2000/svg">
<path d="M570.463 56.7826C460.898 95.0087 351.332 136.767 241.766 182.055C162.111 214.98 81.5229 246.033 1.41526e-05 275.215L0 599.069C84.2615 629.441 166.617 661.707 247.067 695.865C360.167 742.407 473.268 783.653 586.367 819.596C699.468 859.078 814.338 879.14 930.968 879.797C994.592 880.156 1056.44 869.91 1116.53 849.059C1176.61 831.749 1229.63 803.793 1275.58 765.21C1325.05 730.177 1363.93 684.491 1392.21 628.151C1424.01 575.363 1439.92 515.424 1439.92 448.332C1439.92 303.555 1388.67 192.036 1286.18 113.775C1183.68 39.0444 1065 1.30007 930.968 0.546283C803.736 -0.169268 683.563 18.5762 570.463 56.7826Z" fill="#4B418A"/>
<path d="M700.229 278.92C700.369 276.75 700.299 275.14 702.889 275.14C706.949 275.14 707.789 278.64 707.789 282.07C707.789 286.41 706.319 288.93 701.769 288.93C699.459 288.93 699.809 287.39 699.949 285.57L700.229 278.92ZM683.709 302.44C683.709 311.54 678.459 309.02 678.459 312.66C678.459 317.77 688.399 317.77 691.759 317.77C703.099 317.77 704.849 315.88 704.849 313.36C704.849 310 701.279 310.98 700.719 307.76C700.369 305.8 700.229 303 700.229 300.97C700.229 296.56 700.789 296.35 702.329 296.35C706.179 296.35 707.369 299.5 708.139 302.72C710.309 311.96 711.709 318.4 722.909 318.4C730.819 318.4 734.039 315.6 734.039 312.94C734.039 308.67 729.489 312.59 728.649 306.08C727.669 298.52 725.499 295.3 720.599 293.48C719.759 293.13 718.849 292.85 718.849 291.8C718.849 290.96 719.339 290.75 719.969 290.4C723.889 288.51 725.919 284.45 725.919 280.25C725.919 270.94 716.749 267.44 708.839 267.44C706.599 267.44 704.289 267.58 702.049 267.65C699.739 267.79 697.499 267.93 695.259 267.93C693.859 267.93 692.389 267.79 690.989 267.65C689.519 267.58 688.119 267.44 686.649 267.44C683.849 267.44 678.389 267.93 678.389 271.78C678.389 276.12 683.709 271.64 683.709 282.49V302.44ZM744.288 267.93C741.418 267.93 735.538 267.23 735.538 271.5C735.538 276.47 740.858 270.94 741.348 281.65C742.048 294.32 741.978 293.06 741.138 305.8C740.648 313.22 735.888 310.14 735.888 313.99C735.888 314.9 735.958 317 740.578 317H769.348C771.728 317 773.688 317.21 775.228 317.35C776.698 317.56 777.818 317.77 778.308 317.77C781.108 317.77 784.888 309.23 784.888 304.47C784.888 302.51 783.768 299.99 781.528 299.99C775.788 299.99 779.848 309.86 765.498 309.86C758.148 309.86 757.448 310.35 757.448 300.13C757.448 297.89 757.378 295.23 760.318 295.23C767.388 295.23 763.048 302.58 767.388 302.58C771.588 302.58 772.078 294.18 772.078 291.31C772.078 288.58 771.798 280.67 767.738 280.67C762.768 280.67 766.758 288.44 761.438 288.44C757.168 288.44 756.958 288.3 756.958 284.24C756.958 276.19 756.188 274.79 763.958 274.79C777.258 274.79 772.778 281.51 778.308 281.51C781.038 281.51 781.948 278.78 781.948 276.47C781.948 273.39 780.268 266.53 776.278 266.53C775.158 266.53 773.828 267.93 764.448 267.93H744.288ZM792.489 298.1C792.489 300.41 792.279 305.38 791.579 307.34C790.109 311.05 786.329 309.23 786.329 313.15C786.329 316.16 788.149 317.77 799.349 317.77C816.359 317.77 815.729 314.69 815.729 313.08C815.729 307.76 808.659 313.5 808.939 303.14C809.009 295.93 808.589 295.37 811.669 295.37C819.159 295.37 814.539 303.28 819.019 303.28C823.779 303.28 824.129 294.81 824.129 291.52C824.129 288.79 823.849 281.16 819.859 281.16C814.959 281.16 818.389 287.6 812.999 287.6C808.939 287.6 808.869 286.41 808.869 285.15C808.869 275 810.689 275.35 814.959 275.35C828.399 275.35 825.879 282.56 830.709 282.56C833.369 282.56 834.489 280.11 834.489 277.73C834.489 272.97 831.619 267.23 828.889 267.23C827.909 267.23 813.839 267.93 812.439 267.93C806.629 267.93 794.029 267.23 792.209 267.23C789.969 267.23 786.889 268.35 786.889 271.01C786.889 274.86 791.439 272.27 792.279 278.29C792.629 281.02 792.559 285.5 792.489 288.37V298.1ZM878.051 297.47C878.051 298.24 878.541 307.41 867.481 307.41C860.061 307.41 856.911 302.09 856.911 293.76V280.88C857.261 272.34 862.371 277.03 862.371 271.99C862.371 269.26 860.061 267.16 848.651 267.16C834.231 267.16 835.001 271.08 835.001 272.06C835.001 275.28 839.761 275.28 839.481 279.69V295.86C839.481 296.7 836.401 317.98 863.981 317.98C888.201 317.98 888.131 301.18 888.131 298.03V279.13C888.131 272.76 893.381 275.14 893.381 271.22C893.381 267.16 885.681 267.16 883.021 267.16C880.151 267.16 872.031 267.02 872.031 271.36C872.031 275.42 878.051 272.55 878.051 280.04V297.47ZM903.832 295.65C911.602 301.88 921.192 300.62 921.192 305.66C921.192 308.32 917.342 309.09 915.802 309.09C902.922 309.09 903.762 297.96 898.792 297.96C896.692 297.96 895.852 299.85 895.852 301.74C895.852 305.31 897.462 312.73 900.822 314.62C904.812 316.79 912.722 317.98 917.342 317.98C933.652 317.98 940.372 308.74 940.372 300.55C940.372 295.3 938.202 291.8 933.862 288.93C925.742 283.54 916.152 285.01 916.152 279.48C916.152 276.96 918.462 275.98 920.632 275.98C927.912 275.98 930.642 283.96 935.332 283.96C937.922 283.96 939.462 281.58 939.462 279.2C939.462 273.32 934.142 267.93 931.762 267.93C930.292 267.93 929.312 268.91 928.332 268.91C927.282 268.91 922.242 266.95 917.762 266.95C904.182 266.95 897.182 275.98 897.182 283.26C897.182 288.3 899.982 292.57 903.832 295.65ZM951.553 267.93C948.683 267.93 942.803 267.23 942.803 271.5C942.803 276.47 948.123 270.94 948.613 281.65C949.313 294.32 949.243 293.06 948.403 305.8C947.913 313.22 943.153 310.14 943.153 313.99C943.153 314.9 943.223 317 947.843 317H976.613C978.993 317 980.953 317.21 982.493 317.35C983.963 317.56 985.083 317.77 985.573 317.77C988.373 317.77 992.153 309.23 992.153 304.47C992.153 302.51 991.033 299.99 988.793 299.99C983.053 299.99 987.113 309.86 972.763 309.86C965.413 309.86 964.713 310.35 964.713 300.13C964.713 297.89 964.643 295.23 967.583 295.23C974.653 295.23 970.313 302.58 974.653 302.58C978.853 302.58 979.343 294.18 979.343 291.31C979.343 288.58 979.063 280.67 975.003 280.67C970.033 280.67 974.023 288.44 968.703 288.44C964.433 288.44 964.223 288.3 964.223 284.24C964.223 276.19 963.453 274.79 971.223 274.79C984.523 274.79 980.043 281.51 985.573 281.51C988.303 281.51 989.213 278.78 989.213 276.47C989.213 273.39 987.533 266.53 983.543 266.53C982.423 266.53 981.093 267.93 971.713 267.93H951.553ZM1032.33 267.93C1029.53 267.93 1027.64 267.65 1026.31 267.44C1024.98 267.16 1024.21 266.95 1023.72 266.95C1019.73 266.95 1014.69 274.72 1014.69 280.67C1014.69 283.19 1016.3 285.71 1019.03 285.71C1024.7 285.71 1026.24 277.45 1029.39 277.45C1030.37 277.45 1031.84 277.38 1031.56 284.73L1031 300.2C1030.93 301.95 1030.65 306.15 1029.95 307.62C1028.55 310.28 1024.21 308.81 1024.21 312.52C1024.21 317.91 1037.3 317.77 1040.87 317.77C1053.96 317.77 1055.29 314.69 1055.29 312.52C1055.29 307.62 1048.85 311.61 1048.85 303.28V281.79C1048.85 281.23 1048.57 277.45 1051.3 277.45C1054.87 277.45 1054.8 285.71 1060.89 285.71C1064.46 285.71 1066.28 283.4 1066.28 279.9C1066.28 272.34 1060.61 266.95 1057.88 266.95C1056.55 266.95 1055.99 267.16 1055.01 267.44C1053.96 267.65 1052.56 267.93 1049.55 267.93H1032.33ZM1094.24 317.98C1108.52 317.98 1121.82 308.04 1121.82 292.99C1121.82 283.96 1114.4 266.95 1095.08 266.95C1079.82 266.95 1067.99 277.45 1067.99 292.29C1067.99 307.2 1079.47 317.98 1094.24 317.98ZM1103.83 300.06C1103.83 303.84 1102.01 307.55 1097.74 307.55C1090.18 307.55 1085.98 290.82 1085.98 284.87C1085.98 281.44 1087.94 277.38 1091.86 277.38C1100.05 277.38 1103.83 293.69 1103.83 300.06ZM756.181 362.92C756.181 357.53 752.891 351.44 740.081 351.44C738.471 351.44 736.791 351.58 735.181 351.65C733.571 351.79 731.961 351.93 730.281 351.93C727.691 351.93 725.101 351.79 722.511 351.65C719.921 351.58 717.331 351.44 714.741 351.44C712.571 351.44 709.701 352.7 709.701 355.36C709.701 360.19 715.721 355.36 715.301 365.93L714.531 386.09C714.111 397.71 709.561 393.3 709.561 397.64C709.561 400.09 712.011 401.35 714.181 401.35C716.631 401.35 719.011 401.28 721.391 401.14C723.771 401.07 726.221 401 728.601 401C730.771 401 732.871 401.07 734.971 401.14C737.071 401.28 739.241 401.35 741.621 401.35C755.691 401.35 760.381 392.74 760.381 385.74C760.381 379.86 755.411 376.15 752.541 375.03C751.841 374.68 751.071 374.4 751.071 373.49C751.071 372.58 751.701 372.16 752.331 371.6C754.851 369.57 756.181 366.14 756.181 362.92ZM731.961 362.85C731.961 360.82 731.681 358.72 734.271 358.72C738.121 358.72 739.171 362.64 739.171 365.79C739.171 369.64 738.191 372.58 733.991 372.58C731.821 372.58 731.961 371.25 731.961 368.52V362.85ZM731.961 382.1C732.031 380.63 732.521 379.51 734.691 379.51C739.591 379.51 740.851 383.29 740.851 387.56C740.851 391.2 739.451 393.93 735.461 393.93C733.291 393.93 731.961 393.72 731.961 385.6V382.1ZM792.504 401C794.884 401 796.424 401.21 797.754 401.49C799.014 401.7 799.994 401.98 801.254 401.98C804.474 401.98 808.394 394.98 808.394 389.52C808.394 386.86 807.204 383.5 804.054 383.5C799.574 383.5 803.634 393.23 791.734 393.23C786.764 393.23 785.924 390.78 785.924 385.74V363.48C785.924 356.9 791.454 359.98 791.454 355.92C791.454 353.54 790.754 351.16 776.754 351.16C773.324 351.16 762.334 351.44 762.334 356.55C762.334 360.54 768.494 357.46 768.634 363.34C768.774 367.26 769.124 371.18 769.124 375.38C769.124 379.51 769.124 383.99 768.984 389.1C768.774 397.22 763.314 393.58 763.314 397.92C763.314 401.14 766.884 401 769.124 401H792.504ZM817.637 351.93C814.767 351.93 808.887 351.23 808.887 355.5C808.887 360.47 814.207 354.94 814.697 365.65C815.397 378.32 815.327 377.06 814.487 389.8C813.997 397.22 809.237 394.14 809.237 397.99C809.237 398.9 809.307 401 813.927 401H842.697C845.077 401 847.037 401.21 848.577 401.35C850.047 401.56 851.167 401.77 851.657 401.77C854.457 401.77 858.237 393.23 858.237 388.47C858.237 386.51 857.117 383.99 854.877 383.99C849.137 383.99 853.197 393.86 838.847 393.86C831.497 393.86 830.797 394.35 830.797 384.13C830.797 381.89 830.727 379.23 833.667 379.23C840.737 379.23 836.397 386.58 840.737 386.58C844.937 386.58 845.427 378.18 845.427 375.31C845.427 372.58 845.147 364.67 841.087 364.67C836.117 364.67 840.107 372.44 834.787 372.44C830.517 372.44 830.307 372.3 830.307 368.24C830.307 360.19 829.537 358.79 837.307 358.79C850.607 358.79 846.127 365.51 851.657 365.51C854.387 365.51 855.297 362.78 855.297 360.47C855.297 357.39 853.617 350.53 849.627 350.53C848.507 350.53 847.177 351.93 837.797 351.93H817.637ZM880.538 354.24C877.388 351.44 876.618 351.16 872.278 351.16C869.128 351.16 859.678 350.88 859.678 355.85C859.678 360.05 864.718 357.32 865.838 364.32C866.608 369.36 866.608 374.47 866.608 379.51C866.608 382.66 866.468 387.07 865.978 390.08C865.278 394.56 861.218 393.09 861.218 396.8C861.218 401.35 868.428 401.77 871.648 401.77C874.938 401.77 882.148 401.35 882.148 396.66C882.148 393.23 878.438 394.91 877.388 390.43C876.968 388.61 876.898 386.02 876.898 384.06C876.898 382.59 876.968 378.04 879.138 378.04C880.608 378.04 882.428 379.72 883.408 380.63L905.038 400.02C906.088 400.93 907.278 401.77 908.678 401.77C913.368 401.77 912.948 392.18 912.948 389.03V370.9C912.948 368.24 912.948 363.9 913.858 361.38C915.048 358.16 918.758 359.63 918.758 355.64C918.758 350.81 911.128 351.16 908.048 351.16C905.108 351.16 897.968 350.95 897.968 355.43C897.968 359.21 901.678 358.16 902.658 361.1C903.218 362.71 903.288 365.72 903.288 367.47C903.288 368.66 903.218 371.53 901.468 371.53C900.208 371.53 897.968 369.5 897.128 368.8L880.538 354.24ZM926.532 387.7C926.322 397.92 920.792 392.32 920.792 397.36C920.792 400.16 923.802 401.35 926.182 401.35C928.212 401.35 930.172 401.28 932.132 401.14C934.092 401.07 936.122 401 938.082 401C940.042 401 941.932 401.07 944.102 401.14C946.272 401.28 948.792 401.35 951.802 401.35C969.512 401.35 977.142 389.1 977.142 376.08C977.142 363.48 970.772 351.44 951.312 351.44H928.492C926.042 351.44 921.982 351.93 921.982 355.15C921.982 359.7 927.232 356.2 927.092 363.41L926.532 387.7ZM943.892 362.92C943.892 360.26 944.102 359.07 947.042 359.07C952.432 359.07 958.592 361.66 958.592 378.04C958.592 385.04 957.052 394.07 948.232 394.07C944.452 394.07 943.892 392.6 943.892 389.03V362.92ZM1007.68 379.93C1007.68 389.73 1006.98 392.32 1006.14 393.3C1005.02 394.63 1002.64 394.98 1002.64 397.22C1002.64 401.7 1011.46 401.77 1014.4 401.77C1029.73 401.77 1030.36 398.62 1030.36 396.52C1030.36 394.35 1028.68 394 1026.93 392.95C1025.53 392.11 1024.69 392.39 1024.69 379.93V373C1024.69 368.1 1024.76 361.8 1026.09 360.26C1027.7 358.44 1030.36 358.58 1030.36 356.06C1030.36 351.3 1021.75 351.16 1017.55 351.16C1016.15 351.16 1001.87 351.16 1001.87 356.2C1001.87 358.86 1004.6 359.07 1006.21 361.1C1006.98 362.08 1007.68 364.11 1007.68 373V379.93ZM1053.15 354.24C1050 351.44 1049.23 351.16 1044.89 351.16C1041.74 351.16 1032.29 350.88 1032.29 355.85C1032.29 360.05 1037.33 357.32 1038.45 364.32C1039.22 369.36 1039.22 374.47 1039.22 379.51C1039.22 382.66 1039.08 387.07 1038.59 390.08C1037.89 394.56 1033.83 393.09 1033.83 396.8C1033.83 401.35 1041.04 401.77 1044.26 401.77C1047.55 401.77 1054.76 401.35 1054.76 396.66C1054.76 393.23 1051.05 394.91 1050 390.43C1049.58 388.61 1049.51 386.02 1049.51 384.06C1049.51 382.59 1049.58 378.04 1051.75 378.04C1053.22 378.04 1055.04 379.72 1056.02 380.63L1077.65 400.02C1078.7 400.93 1079.89 401.77 1081.29 401.77C1085.98 401.77 1085.56 392.18 1085.56 389.03V370.9C1085.56 368.24 1085.56 363.9 1086.47 361.38C1087.66 358.16 1091.37 359.63 1091.37 355.64C1091.37 350.81 1083.74 351.16 1080.66 351.16C1077.72 351.16 1070.58 350.95 1070.58 355.43C1070.58 359.21 1074.29 358.16 1075.27 361.1C1075.83 362.71 1075.9 365.72 1075.9 367.47C1075.9 368.66 1075.83 371.53 1074.08 371.53C1072.82 371.53 1070.58 369.5 1069.74 368.8L1053.15 354.24Z" fill="#F6F5F1"/>
<path d="M673.014 467.552H671.166L669.198 478.64H669.174L665.838 467.552H663.774L660.534 478.64H660.51L658.374 467.336L656.382 467.672L659.262 482H661.254L664.734 470.456H664.758L668.262 482H670.182L673.014 467.552ZM683.286 481.4L682.614 479.888C681.774 480.296 681.054 480.56 680.142 480.56C677.694 480.56 676.614 479.12 676.59 476.12H683.19V474.776C683.19 472.304 682.086 470.504 679.374 470.504C676.542 470.504 674.718 472.832 674.718 476.312C674.718 480.032 676.422 482.264 679.734 482.264C681.102 482.264 682.206 482 683.286 481.4ZM681.39 474.776H676.686C676.926 473.168 677.838 472.04 679.278 472.04C680.766 472.04 681.39 473.096 681.39 474.776ZM688.358 468.92C688.358 467.96 687.758 467.336 686.99 467.336C686.222 467.336 685.598 467.936 685.598 468.728C685.598 469.424 686.174 470 686.846 470.096C686.726 470.96 686.342 471.632 685.622 472.16L686.174 472.88C687.638 472.016 688.358 470.672 688.358 468.92ZM696.675 472.424V470.528C695.187 470.528 694.179 471.248 693.411 472.112H693.387L693.195 470.576L691.299 470.888L691.635 473.36V482H693.555V473.552C694.419 472.76 695.379 472.424 696.675 472.424ZM706.536 481.4L705.864 479.888C705.024 480.296 704.304 480.56 703.392 480.56C700.944 480.56 699.864 479.12 699.84 476.12H706.44V474.776C706.44 472.304 705.336 470.504 702.624 470.504C699.792 470.504 697.968 472.832 697.968 476.312C697.968 480.032 699.672 482.264 702.984 482.264C704.352 482.264 705.456 482 706.536 481.4ZM704.64 474.776H699.936C700.176 473.168 701.088 472.04 702.528 472.04C704.016 472.04 704.64 473.096 704.64 474.776ZM721.808 481.88L721.448 479.408V474.056C721.448 471.824 719.936 470.504 717.68 470.504C716.24 470.504 715.208 470.888 714.2 471.488L714.896 472.904C715.592 472.544 716.288 472.256 717.224 472.256C719.072 472.256 719.552 473.36 719.552 474.92V475.928L717.536 476.144C715.256 476.384 713.672 477.368 713.672 479.384C713.672 481.16 714.776 482.288 716.648 482.288C717.992 482.288 718.88 481.64 719.696 480.872H719.72L719.888 482.192L721.808 481.88ZM719.552 479.672C718.928 480.224 718.232 480.704 717.104 480.704C716.144 480.704 715.568 480.08 715.568 479.144C715.568 478.112 716.36 477.656 717.8 477.464L719.552 477.224V479.672ZM737.602 470.984C736.81 470.672 735.97 470.504 734.986 470.504C732.13 470.504 729.586 472.4 729.586 476.528C729.586 479.96 731.242 482.264 734.458 482.264C735.538 482.264 736.57 482.048 737.506 481.616L736.858 480.056C736.234 480.32 735.61 480.584 734.842 480.584C732.682 480.584 731.506 479.216 731.506 476.216C731.506 473.84 732.778 472.256 734.89 472.256C735.682 472.256 736.378 472.472 737.002 472.712L737.602 470.984ZM745.284 472.424V470.528C743.796 470.528 742.788 471.248 742.02 472.112H741.996L741.804 470.576L739.908 470.888L740.244 473.36V482H742.164V473.552C743.028 472.76 743.988 472.424 745.284 472.424ZM755.146 481.4L754.474 479.888C753.634 480.296 752.914 480.56 752.002 480.56C749.554 480.56 748.474 479.12 748.45 476.12H755.05V474.776C755.05 472.304 753.946 470.504 751.234 470.504C748.402 470.504 746.578 472.832 746.578 476.312C746.578 480.032 748.282 482.264 751.594 482.264C752.962 482.264 754.066 482 755.146 481.4ZM753.25 474.776H748.546C748.786 473.168 749.698 472.04 751.138 472.04C752.626 472.04 753.25 473.096 753.25 474.776ZM765.378 481.88L765.018 479.408V474.056C765.018 471.824 763.506 470.504 761.25 470.504C759.81 470.504 758.778 470.888 757.77 471.488L758.466 472.904C759.162 472.544 759.858 472.256 760.794 472.256C762.642 472.256 763.122 473.36 763.122 474.92V475.928L761.106 476.144C758.826 476.384 757.242 477.368 757.242 479.384C757.242 481.16 758.346 482.288 760.218 482.288C761.562 482.288 762.45 481.64 763.266 480.872H763.29L763.458 482.192L765.378 481.88ZM763.122 479.672C762.498 480.224 761.802 480.704 760.674 480.704C759.714 480.704 759.138 480.08 759.138 479.144C759.138 478.112 759.93 477.656 761.37 477.464L763.122 477.224V479.672ZM774.501 481.544L773.877 480.08C773.541 480.296 773.085 480.536 772.485 480.536C771.381 480.536 770.997 480.056 770.997 478.544V472.328H774.141V470.768H770.997V468.608L769.101 468.848V470.72L767.445 471.056V472.328H769.101V479.192C769.101 481.112 770.205 482.24 771.933 482.24C773.157 482.24 773.805 481.928 774.501 481.544ZM779.033 482V470.576L776.777 470.888L777.113 473.36V482H779.033ZM779.417 467.84C779.417 467.072 778.817 466.472 778.097 466.472C777.353 466.472 776.729 467.072 776.729 467.84C776.729 468.608 777.353 469.184 778.097 469.184C778.817 469.184 779.417 468.608 779.417 467.84ZM791.061 470.768H789.141L786.165 479.504H786.141L783.333 470.456L781.413 470.936L785.109 482.048L787.005 481.976L791.061 470.768ZM801.013 481.4L800.341 479.888C799.501 480.296 798.781 480.56 797.869 480.56C795.421 480.56 794.341 479.12 794.317 476.12H800.917V474.776C800.917 472.304 799.813 470.504 797.101 470.504C794.269 470.504 792.445 472.832 792.445 476.312C792.445 480.032 794.149 482.264 797.461 482.264C798.829 482.264 799.933 482 801.013 481.4ZM799.117 474.776H794.413C794.653 473.168 795.565 472.04 797.005 472.04C798.493 472.04 799.117 473.096 799.117 474.776ZM822.38 470.768H820.508L818.42 479.192H818.396L815.756 470.768H813.884L811.268 479.192H811.244L809.228 470.432L807.404 470.888L810.212 482.048L811.988 481.976L814.748 473.528H814.772L817.508 482.048L819.284 481.952L822.38 470.768ZM832.513 481.4L831.841 479.888C831.001 480.296 830.281 480.56 829.369 480.56C826.921 480.56 825.841 479.12 825.817 476.12H832.417V474.776C832.417 472.304 831.313 470.504 828.601 470.504C825.769 470.504 823.945 472.832 823.945 476.312C823.945 480.032 825.649 482.264 828.961 482.264C830.329 482.264 831.433 482 832.513 481.4ZM830.617 474.776H825.913C826.153 473.168 827.065 472.04 828.505 472.04C829.993 472.04 830.617 473.096 830.617 474.776ZM844.257 475.712C844.257 472.4 842.865 470.504 840.225 470.504C839.001 470.504 838.041 470.96 837.273 471.632H837.249V465.608L834.993 465.92L835.329 468.392V481.712C836.145 482.024 837.513 482.24 838.761 482.24C842.313 482.24 844.257 479.456 844.257 475.712ZM842.313 476.408C842.313 478.688 841.161 480.584 838.929 480.584C838.209 480.584 837.729 480.512 837.249 480.392V473.168C837.873 472.64 838.569 472.256 839.553 472.256C841.737 472.256 842.313 473.936 842.313 476.408ZM860.793 481.928L860.457 479.456V465.608L858.201 465.92L858.561 468.392V470.816C858.273 470.744 857.721 470.648 857.001 470.648C853.593 470.648 851.601 473.024 851.601 476.888C851.601 480.224 853.257 482.264 855.729 482.264C857.001 482.264 857.985 481.712 858.753 481.064H858.777L858.945 482.192L860.793 481.928ZM856.401 480.584C854.289 480.584 853.569 479 853.569 476.288C853.569 474.104 854.649 472.256 856.833 472.256C857.649 472.256 858.177 472.424 858.561 472.568V479.744C857.985 480.2 857.337 480.584 856.401 480.584ZM872.099 481.4L871.427 479.888C870.587 480.296 869.867 480.56 868.955 480.56C866.507 480.56 865.427 479.12 865.403 476.12H872.003V474.776C872.003 472.304 870.899 470.504 868.187 470.504C865.355 470.504 863.531 472.832 863.531 476.312C863.531 480.032 865.235 482.264 868.547 482.264C869.915 482.264 871.019 482 872.099 481.4ZM870.203 474.776H865.499C865.739 473.168 866.651 472.04 868.091 472.04C869.579 472.04 870.203 473.096 870.203 474.776ZM881.467 478.736C881.467 477.512 880.843 476.624 879.451 475.976L877.123 474.872C876.763 474.704 876.043 474.368 876.043 473.528C876.043 472.568 876.835 472.184 878.059 472.184C878.971 472.184 879.715 472.424 880.483 472.76L881.131 471.104C880.171 470.696 879.307 470.504 878.083 470.504C876.043 470.504 874.171 471.512 874.171 473.648C874.171 475.592 875.515 476.264 876.163 476.552L878.347 477.56C879.091 477.92 879.523 478.232 879.523 479.048C879.523 480.104 878.659 480.608 877.363 480.608C876.499 480.608 875.611 480.32 874.819 479.96L874.243 481.64C875.155 482.072 876.307 482.24 877.459 482.24C879.859 482.24 881.467 480.776 881.467 478.736ZM886.47 482V470.576L884.214 470.888L884.55 473.36V482H886.47ZM886.854 467.84C886.854 467.072 886.254 466.472 885.534 466.472C884.79 466.472 884.166 467.072 884.166 467.84C884.166 468.608 884.79 469.184 885.534 469.184C886.254 469.184 886.854 468.608 886.854 467.84ZM899.483 472.184V470.504L896.075 471.032C895.451 470.648 894.659 470.456 893.795 470.456C891.467 470.456 889.787 471.968 889.787 474.248C889.787 475.712 890.363 476.816 891.419 477.464C891.179 477.584 889.979 478.28 889.979 479.672C889.979 480.464 890.291 480.944 890.771 481.256C890.267 481.616 889.259 482.504 889.259 484.016C889.259 485.984 890.699 487.136 893.051 487.136C897.155 487.136 899.411 484.64 899.411 482.432C899.411 480.68 898.259 480.08 896.291 480.08H893.075C892.307 480.08 891.755 479.936 891.755 479.192C891.755 478.616 892.115 478.16 892.523 477.896C892.907 477.992 893.339 478.064 893.795 478.064C896.099 478.064 897.755 476.528 897.755 474.248C897.755 473.432 897.563 472.76 897.227 472.184H899.483ZM897.731 482.72C897.731 483.944 896.243 485.576 893.483 485.576C891.755 485.576 890.963 484.88 890.963 483.584C890.963 482.6 891.563 481.928 891.875 481.664C892.187 481.712 892.499 481.736 892.835 481.736H895.859C897.035 481.736 897.731 481.904 897.731 482.72ZM895.955 474.248C895.955 475.784 895.019 476.624 893.795 476.624C892.475 476.624 891.587 475.832 891.587 474.248C891.587 472.736 892.547 471.896 893.795 471.896C895.091 471.896 895.955 472.688 895.955 474.248ZM910.553 482V474.032C910.553 471.728 909.041 470.504 907.145 470.504C905.753 470.504 904.649 471.08 903.809 471.896H903.785L903.593 470.576L901.697 470.888L902.033 473.36V482H903.953V473.288C904.649 472.664 905.417 472.208 906.497 472.208C908.009 472.208 908.633 473.048 908.633 474.704V482H910.553ZM926.745 481.88L926.385 479.408V474.056C926.385 471.824 924.873 470.504 922.617 470.504C921.177 470.504 920.145 470.888 919.137 471.488L919.833 472.904C920.529 472.544 921.225 472.256 922.161 472.256C924.009 472.256 924.489 473.36 924.489 474.92V475.928L922.473 476.144C920.193 476.384 918.609 477.368 918.609 479.384C918.609 481.16 919.713 482.288 921.585 482.288C922.929 482.288 923.817 481.64 924.633 480.872H924.657L924.825 482.192L926.745 481.88ZM924.489 479.672C923.865 480.224 923.169 480.704 922.041 480.704C921.081 480.704 920.505 480.08 920.505 479.144C920.505 478.112 921.297 477.656 922.737 477.464L924.489 477.224V479.672ZM938.772 482V474.032C938.772 471.728 937.26 470.504 935.364 470.504C933.972 470.504 932.868 471.08 932.028 471.896H932.004L931.812 470.576L929.916 470.888L930.252 473.36V482H932.172V473.288C932.868 472.664 933.636 472.208 934.716 472.208C936.228 472.208 936.852 473.048 936.852 474.704V482H938.772ZM950.981 481.928L950.645 479.456V465.608L948.389 465.92L948.749 468.392V470.816C948.461 470.744 947.909 470.648 947.189 470.648C943.781 470.648 941.789 473.024 941.789 476.888C941.789 480.224 943.445 482.264 945.917 482.264C947.189 482.264 948.173 481.712 948.941 481.064H948.965L949.133 482.192L950.981 481.928ZM946.589 480.584C944.477 480.584 943.757 479 943.757 476.288C943.757 474.104 944.837 472.256 947.021 472.256C947.837 472.256 948.365 472.424 948.749 472.568V479.744C948.173 480.2 947.525 480.584 946.589 480.584ZM967.949 481.928L967.613 479.456V465.608L965.357 465.92L965.717 468.392V470.816C965.429 470.744 964.877 470.648 964.157 470.648C960.749 470.648 958.757 473.024 958.757 476.888C958.757 480.224 960.413 482.264 962.885 482.264C964.157 482.264 965.141 481.712 965.909 481.064H965.933L966.101 482.192L967.949 481.928ZM963.557 480.584C961.445 480.584 960.725 479 960.725 476.288C960.725 474.104 961.805 472.256 963.989 472.256C964.805 472.256 965.333 472.424 965.717 472.568V479.744C965.141 480.2 964.493 480.584 963.557 480.584ZM979.255 481.4L978.583 479.888C977.743 480.296 977.023 480.56 976.111 480.56C973.663 480.56 972.583 479.12 972.559 476.12H979.159V474.776C979.159 472.304 978.055 470.504 975.343 470.504C972.511 470.504 970.687 472.832 970.687 476.312C970.687 480.032 972.391 482.264 975.703 482.264C977.071 482.264 978.175 482 979.255 481.4ZM977.359 474.776H972.655C972.895 473.168 973.807 472.04 975.247 472.04C976.735 472.04 977.359 473.096 977.359 474.776ZM990.303 470.768H988.383L985.407 479.504H985.383L982.575 470.456L980.655 470.936L984.351 482.048L986.247 481.976L990.303 470.768ZM1000.26 481.4L999.583 479.888C998.743 480.296 998.023 480.56 997.111 480.56C994.663 480.56 993.583 479.12 993.559 476.12H1000.16V474.776C1000.16 472.304 999.055 470.504 996.343 470.504C993.511 470.504 991.687 472.832 991.687 476.312C991.687 480.032 993.391 482.264 996.703 482.264C998.071 482.264 999.175 482 1000.26 481.4ZM998.359 474.776H993.655C993.895 473.168 994.807 472.04 996.247 472.04C997.735 472.04 998.359 473.096 998.359 474.776ZM1004.99 482V465.608L1002.74 465.92L1003.07 468.392V482H1004.99ZM1017.62 476.384C1017.62 473.024 1016.38 470.504 1012.82 470.504C1009.58 470.504 1008.02 473.096 1008.02 476.384C1008.02 479.744 1009.27 482.264 1012.82 482.264C1016.06 482.264 1017.62 479.672 1017.62 476.384ZM1015.63 476.432C1015.63 479.24 1014.67 480.584 1012.82 480.584C1010.93 480.584 1009.99 479.096 1009.99 476.312C1009.99 473.504 1010.98 472.184 1012.82 472.184C1014.72 472.184 1015.63 473.648 1015.63 476.432ZM1029.51 475.832C1029.51 472.568 1028.19 470.504 1025.45 470.504C1024.2 470.504 1023.22 471.056 1022.43 471.728H1022.4L1022.23 470.576L1020.34 470.888L1020.67 473.36V487.064L1022.59 486.752V481.952C1023.05 482.072 1023.55 482.12 1024.18 482.12C1027.92 482.12 1029.51 479.48 1029.51 475.832ZM1027.59 476.384C1027.59 478.856 1026.41 480.488 1024.32 480.488C1023.58 480.488 1023.07 480.392 1022.59 480.176V473.096C1023.17 472.64 1023.87 472.232 1024.8 472.232C1027.03 472.232 1027.59 473.936 1027.59 476.384ZM1047.65 482V474.032C1047.65 471.728 1046.19 470.504 1044.27 470.504C1042.68 470.504 1041.53 471.224 1040.64 472.112H1040.62C1040.04 471.08 1038.96 470.504 1037.67 470.504C1036.28 470.504 1035.17 471.08 1034.33 471.896H1034.31L1034.12 470.576L1032.22 470.888L1032.56 473.36V482H1034.48V473.288C1035.17 472.64 1035.94 472.208 1037.02 472.208C1038.53 472.208 1039.16 473.048 1039.16 474.704V482H1041.08V474.176C1041.08 473.936 1041.05 473.6 1041 473.336C1041.6 472.736 1042.52 472.208 1043.6 472.208C1045.13 472.208 1045.76 473.048 1045.76 474.704V482H1047.65ZM1059.27 481.4L1058.6 479.888C1057.76 480.296 1057.04 480.56 1056.13 480.56C1053.68 480.56 1052.6 479.12 1052.57 476.12H1059.17V474.776C1059.17 472.304 1058.07 470.504 1055.36 470.504C1052.53 470.504 1050.7 472.832 1050.7 476.312C1050.7 480.032 1052.41 482.264 1055.72 482.264C1057.09 482.264 1058.19 482 1059.27 481.4ZM1057.37 474.776H1052.67C1052.91 473.168 1053.82 472.04 1055.26 472.04C1056.75 472.04 1057.37 473.096 1057.37 474.776ZM1070.65 482V474.032C1070.65 471.728 1069.14 470.504 1067.25 470.504C1065.85 470.504 1064.75 471.08 1063.91 471.896H1063.89L1063.69 470.576L1061.8 470.888L1062.13 473.36V482H1064.05V473.288C1064.75 472.664 1065.52 472.208 1066.6 472.208C1068.11 472.208 1068.73 473.048 1068.73 474.704V482H1070.65ZM1080.06 481.544L1079.43 480.08C1079.1 480.296 1078.64 480.536 1078.04 480.536C1076.94 480.536 1076.55 480.056 1076.55 478.544V472.328H1079.7V470.768H1076.55V468.608L1074.66 468.848V470.72L1073 471.056V472.328H1074.66V479.192C1074.66 481.112 1075.76 482.24 1077.49 482.24C1078.71 482.24 1079.36 481.928 1080.06 481.544ZM1094.16 478.736C1094.16 477.512 1093.54 476.624 1092.15 475.976L1089.82 474.872C1089.46 474.704 1088.74 474.368 1088.74 473.528C1088.74 472.568 1089.53 472.184 1090.75 472.184C1091.67 472.184 1092.41 472.424 1093.18 472.76L1093.83 471.104C1092.87 470.696 1092 470.504 1090.78 470.504C1088.74 470.504 1086.87 471.512 1086.87 473.648C1086.87 475.592 1088.21 476.264 1088.86 476.552L1091.04 477.56C1091.79 477.92 1092.22 478.232 1092.22 479.048C1092.22 480.104 1091.35 480.608 1090.06 480.608C1089.19 480.608 1088.31 480.32 1087.51 479.96L1086.94 481.64C1087.85 482.072 1089 482.24 1090.15 482.24C1092.55 482.24 1094.16 480.776 1094.16 478.736ZM1102.81 481.544L1102.19 480.08C1101.85 480.296 1101.4 480.536 1100.8 480.536C1099.69 480.536 1099.31 480.056 1099.31 478.544V472.328H1102.45V470.768H1099.31V468.608L1097.41 468.848V470.72L1095.76 471.056V472.328H1097.41V479.192C1097.41 481.112 1098.52 482.24 1100.25 482.24C1101.47 482.24 1102.12 481.928 1102.81 481.544ZM1114.23 481.88L1113.9 479.408V470.576L1111.64 470.888L1111.98 473.36V479.48C1111.28 480.128 1110.51 480.584 1109.43 480.584C1107.92 480.584 1107.3 479.72 1107.3 478.064V470.576L1105.04 470.888L1105.38 473.36V478.736C1105.38 481.04 1106.89 482.264 1108.79 482.264C1110.18 482.264 1111.28 481.688 1112.12 480.896H1112.15L1112.34 482.192L1114.23 481.88ZM1126.15 481.928L1125.82 479.456V465.608L1123.56 465.92L1123.92 468.392V470.816C1123.63 470.744 1123.08 470.648 1122.36 470.648C1118.95 470.648 1116.96 473.024 1116.96 476.888C1116.96 480.224 1118.62 482.264 1121.09 482.264C1122.36 482.264 1123.34 481.712 1124.11 481.064H1124.14L1124.3 482.192L1126.15 481.928ZM1121.76 480.584C1119.65 480.584 1118.93 479 1118.93 476.288C1118.93 474.104 1120.01 472.256 1122.19 472.256C1123.01 472.256 1123.54 472.424 1123.92 472.568V479.744C1123.34 480.2 1122.7 480.584 1121.76 480.584ZM1131.63 482V470.576L1129.37 470.888L1129.71 473.36V482H1131.63ZM1132.01 467.84C1132.01 467.072 1131.41 466.472 1130.69 466.472C1129.95 466.472 1129.32 467.072 1129.32 467.84C1129.32 468.608 1129.95 469.184 1130.69 469.184C1131.41 469.184 1132.01 468.608 1132.01 467.84ZM1144.3 476.384C1144.3 473.024 1143.05 470.504 1139.5 470.504C1136.26 470.504 1134.7 473.096 1134.7 476.384C1134.7 479.744 1135.95 482.264 1139.5 482.264C1142.74 482.264 1144.3 479.672 1144.3 476.384ZM1142.31 476.432C1142.31 479.24 1141.35 480.584 1139.5 480.584C1137.61 480.584 1136.67 479.096 1136.67 476.312C1136.67 473.504 1137.65 472.184 1139.5 472.184C1141.4 472.184 1142.31 473.648 1142.31 476.432ZM680.033 516.736C680.033 515.512 679.409 514.624 678.017 513.976L675.689 512.872C675.329 512.704 674.609 512.368 674.609 511.528C674.609 510.568 675.401 510.184 676.625 510.184C677.537 510.184 678.281 510.424 679.049 510.76L679.697 509.104C678.737 508.696 677.873 508.504 676.649 508.504C674.609 508.504 672.737 509.512 672.737 511.648C672.737 513.592 674.081 514.264 674.729 514.552L676.913 515.56C677.657 515.92 678.089 516.232 678.089 517.048C678.089 518.104 677.225 518.608 675.929 518.608C675.065 518.608 674.177 518.32 673.385 517.96L672.809 519.64C673.721 520.072 674.873 520.24 676.025 520.24C678.425 520.24 680.033 518.776 680.033 516.736ZM691.9 513.832C691.9 510.568 690.58 508.504 687.844 508.504C686.596 508.504 685.612 509.056 684.82 509.728H684.796L684.628 508.576L682.732 508.888L683.068 511.36V525.064L684.988 524.752V519.952C685.444 520.072 685.948 520.12 686.572 520.12C690.316 520.12 691.9 517.48 691.9 513.832ZM689.98 514.384C689.98 516.856 688.804 518.488 686.716 518.488C685.972 518.488 685.468 518.392 684.988 518.176V511.096C685.564 510.64 686.26 510.232 687.196 510.232C689.428 510.232 689.98 511.936 689.98 514.384ZM702.751 519.4L702.079 517.888C701.239 518.296 700.519 518.56 699.607 518.56C697.159 518.56 696.079 517.12 696.055 514.12H702.655V512.776C702.655 510.304 701.551 508.504 698.839 508.504C696.007 508.504 694.183 510.832 694.183 514.312C694.183 518.032 695.887 520.264 699.199 520.264C700.567 520.264 701.671 520 702.751 519.4ZM700.855 512.776H696.151C696.391 511.168 697.303 510.04 698.743 510.04C700.231 510.04 700.855 511.096 700.855 512.776ZM712.863 508.984C712.071 508.672 711.231 508.504 710.247 508.504C707.391 508.504 704.847 510.4 704.847 514.528C704.847 517.96 706.503 520.264 709.719 520.264C710.799 520.264 711.831 520.048 712.767 519.616L712.119 518.056C711.495 518.32 710.871 518.584 710.103 518.584C707.943 518.584 706.767 517.216 706.767 514.216C706.767 511.84 708.039 510.256 710.151 510.256C710.943 510.256 711.639 510.472 712.263 510.712L712.863 508.984ZM717.474 520V508.576L715.218 508.888L715.554 511.36V520H717.474ZM717.858 505.84C717.858 505.072 717.258 504.472 716.538 504.472C715.794 504.472 715.17 505.072 715.17 505.84C715.17 506.608 715.794 507.184 716.538 507.184C717.258 507.184 717.858 506.608 717.858 505.84ZM728.686 519.88L728.326 517.408V512.056C728.326 509.824 726.814 508.504 724.558 508.504C723.118 508.504 722.086 508.888 721.078 509.488L721.774 510.904C722.47 510.544 723.166 510.256 724.102 510.256C725.95 510.256 726.43 511.36 726.43 512.92V513.928L724.414 514.144C722.134 514.384 720.55 515.368 720.55 517.384C720.55 519.16 721.654 520.288 723.526 520.288C724.87 520.288 725.758 519.64 726.574 518.872H726.598L726.766 520.192L728.686 519.88ZM726.43 517.672C725.806 518.224 725.11 518.704 723.982 518.704C723.022 518.704 722.446 518.08 722.446 517.144C722.446 516.112 723.238 515.656 724.678 515.464L726.43 515.224V517.672ZM734.065 520V503.608L731.809 503.92L732.145 506.392V520H734.065ZM739.833 520V508.576L737.577 508.888L737.913 511.36V520H739.833ZM740.217 505.84C740.217 505.072 739.617 504.472 738.897 504.472C738.153 504.472 737.529 505.072 737.529 505.84C737.529 506.608 738.153 507.184 738.897 507.184C739.617 507.184 740.217 506.608 740.217 505.84ZM750.182 516.736C750.182 515.512 749.558 514.624 748.166 513.976L745.838 512.872C745.478 512.704 744.758 512.368 744.758 511.528C744.758 510.568 745.55 510.184 746.774 510.184C747.686 510.184 748.43 510.424 749.198 510.76L749.846 509.104C748.886 508.696 748.022 508.504 746.798 508.504C744.758 508.504 742.886 509.512 742.886 511.648C742.886 513.592 744.23 514.264 744.878 514.552L747.062 515.56C747.806 515.92 748.238 516.232 748.238 517.048C748.238 518.104 747.374 518.608 746.078 518.608C745.214 518.608 744.326 518.32 743.534 517.96L742.958 519.64C743.87 520.072 745.022 520.24 746.174 520.24C748.574 520.24 750.182 518.776 750.182 516.736ZM755.185 520V508.576L752.929 508.888L753.265 511.36V520H755.185ZM755.569 505.84C755.569 505.072 754.969 504.472 754.249 504.472C753.505 504.472 752.881 505.072 752.881 505.84C752.881 506.608 753.505 507.184 754.249 507.184C754.969 507.184 755.569 506.608 755.569 505.84ZM767.549 520V512.032C767.549 509.728 766.037 508.504 764.141 508.504C762.749 508.504 761.645 509.08 760.805 509.896H760.781L760.589 508.576L758.693 508.888L759.029 511.36V520H760.949V511.288C761.645 510.664 762.413 510.208 763.493 510.208C765.005 510.208 765.629 511.048 765.629 512.704V520H767.549ZM780.502 510.184V508.504L777.094 509.032C776.47 508.648 775.678 508.456 774.814 508.456C772.486 508.456 770.806 509.968 770.806 512.248C770.806 513.712 771.382 514.816 772.438 515.464C772.198 515.584 770.998 516.28 770.998 517.672C770.998 518.464 771.31 518.944 771.79 519.256C771.286 519.616 770.278 520.504 770.278 522.016C770.278 523.984 771.718 525.136 774.07 525.136C778.174 525.136 780.43 522.64 780.43 520.432C780.43 518.68 779.278 518.08 777.31 518.08H774.094C773.326 518.08 772.774 517.936 772.774 517.192C772.774 516.616 773.134 516.16 773.542 515.896C773.926 515.992 774.358 516.064 774.814 516.064C777.118 516.064 778.774 514.528 778.774 512.248C778.774 511.432 778.582 510.76 778.246 510.184H780.502ZM778.75 520.72C778.75 521.944 777.262 523.576 774.502 523.576C772.774 523.576 771.982 522.88 771.982 521.584C771.982 520.6 772.582 519.928 772.894 519.664C773.206 519.712 773.518 519.736 773.854 519.736H776.878C778.054 519.736 778.75 519.904 778.75 520.72ZM776.974 512.248C776.974 513.784 776.038 514.624 774.814 514.624C773.494 514.624 772.606 513.832 772.606 512.248C772.606 510.736 773.566 509.896 774.814 509.896C776.11 509.896 776.974 510.688 776.974 512.248ZM790.06 520V508.576L787.804 508.888L788.14 511.36V520H790.06ZM790.444 505.84C790.444 505.072 789.844 504.472 789.124 504.472C788.38 504.472 787.756 505.072 787.756 505.84C787.756 506.608 788.38 507.184 789.124 507.184C789.844 507.184 790.444 506.608 790.444 505.84ZM802.424 520V512.032C802.424 509.728 800.912 508.504 799.016 508.504C797.624 508.504 796.52 509.08 795.68 509.896H795.656L795.464 508.576L793.568 508.888L793.904 511.36V520H795.824V511.288C796.52 510.664 797.288 510.208 798.368 510.208C799.88 510.208 800.504 511.048 800.504 512.704V520H802.424ZM1110.65 503.848C1110.22 503.728 1109.79 503.632 1109.19 503.632C1106.96 503.632 1105.32 505.12 1105.32 507.544V508.72L1103.67 509.056V510.328H1105.32V520H1107.22V510.328H1110.32V508.768H1107.22V507.4C1107.22 505.984 1108.01 505.288 1109.09 505.288C1109.57 505.288 1109.88 505.36 1110.22 505.48L1110.65 503.848ZM1120.88 514.384C1120.88 511.024 1119.63 508.504 1116.08 508.504C1112.84 508.504 1111.28 511.096 1111.28 514.384C1111.28 517.744 1112.53 520.264 1116.08 520.264C1119.32 520.264 1120.88 517.672 1120.88 514.384ZM1118.89 514.432C1118.89 517.24 1117.93 518.584 1116.08 518.584C1114.18 518.584 1113.25 517.096 1113.25 514.312C1113.25 511.504 1114.23 510.184 1116.08 510.184C1117.97 510.184 1118.89 511.648 1118.89 514.432ZM1128.97 510.424V508.528C1127.48 508.528 1126.47 509.248 1125.7 510.112H1125.68L1125.49 508.576L1123.59 508.888L1123.93 511.36V520H1125.85V511.552C1126.71 510.76 1127.67 510.424 1128.97 510.424ZM768.085 551.712C768.085 548.4 766.693 546.504 764.053 546.504C762.829 546.504 761.869 546.96 761.101 547.632H761.077V541.608L758.821 541.92L759.157 544.392V557.712C759.973 558.024 761.341 558.24 762.589 558.24C766.141 558.24 768.085 555.456 768.085 551.712ZM766.141 552.408C766.141 554.688 764.989 556.584 762.757 556.584C762.037 556.584 761.557 556.512 761.077 556.392V549.168C761.701 548.64 762.397 548.256 763.381 548.256C765.565 548.256 766.141 549.936 766.141 552.408ZM776.198 548.424V546.528C774.71 546.528 773.702 547.248 772.934 548.112H772.91L772.718 546.576L770.822 546.888L771.158 549.36V558H773.078V549.552C773.942 548.76 774.902 548.424 776.198 548.424ZM785.558 557.88L785.198 555.408V550.056C785.198 547.824 783.686 546.504 781.43 546.504C779.99 546.504 778.958 546.888 777.95 547.488L778.646 548.904C779.342 548.544 780.038 548.256 780.974 548.256C782.822 548.256 783.302 549.36 783.302 550.92V551.928L781.286 552.144C779.006 552.384 777.422 553.368 777.422 555.384C777.422 557.16 778.526 558.288 780.398 558.288C781.742 558.288 782.63 557.64 783.446 556.872H783.47L783.638 558.192L785.558 557.88ZM783.302 555.672C782.678 556.224 781.982 556.704 780.854 556.704C779.894 556.704 779.318 556.08 779.318 555.144C779.318 554.112 780.11 553.656 781.55 553.464L783.302 553.224V555.672ZM797.585 558V550.032C797.585 547.728 796.073 546.504 794.177 546.504C792.785 546.504 791.681 547.08 790.841 547.896H790.817L790.625 546.576L788.729 546.888L789.065 549.36V558H790.985V549.288C791.681 548.664 792.449 548.208 793.529 548.208C795.041 548.208 795.665 549.048 795.665 550.704V558H797.585ZM809.793 557.928L809.457 555.456V541.608L807.201 541.92L807.561 544.392V546.816C807.273 546.744 806.721 546.648 806.001 546.648C802.593 546.648 800.601 549.024 800.601 552.888C800.601 556.224 802.257 558.264 804.729 558.264C806.001 558.264 806.985 557.712 807.753 557.064H807.777L807.945 558.192L809.793 557.928ZM805.401 556.584C803.289 556.584 802.569 555 802.569 552.288C802.569 550.104 803.649 548.256 805.833 548.256C806.649 548.256 807.177 548.424 807.561 548.568V555.744C806.985 556.2 806.337 556.584 805.401 556.584ZM819.803 554.736C819.803 553.512 819.179 552.624 817.787 551.976L815.459 550.872C815.099 550.704 814.379 550.368 814.379 549.528C814.379 548.568 815.171 548.184 816.395 548.184C817.307 548.184 818.051 548.424 818.819 548.76L819.467 547.104C818.507 546.696 817.643 546.504 816.419 546.504C814.379 546.504 812.507 547.512 812.507 549.648C812.507 551.592 813.851 552.264 814.499 552.552L816.683 553.56C817.427 553.92 817.859 554.232 817.859 555.048C817.859 556.104 816.995 556.608 815.699 556.608C814.835 556.608 813.947 556.32 813.155 555.96L812.579 557.64C813.491 558.072 814.643 558.24 815.795 558.24C818.195 558.24 819.803 556.776 819.803 554.736ZM841.341 546.768H839.469L837.381 555.192H837.357L834.717 546.768H832.845L830.229 555.192H830.205L828.189 546.432L826.365 546.888L829.173 558.048L830.949 557.976L833.709 549.528H833.733L836.469 558.048L838.245 557.952L841.341 546.768ZM852.309 558V550.032C852.309 547.704 850.845 546.504 848.925 546.504C847.629 546.504 846.597 547.032 845.757 547.752H845.733V541.608L843.477 541.92L843.813 544.392V558H845.733V549.288C846.429 548.664 847.149 548.232 848.229 548.232C849.765 548.232 850.413 549.072 850.413 550.704V558H852.309ZM864.951 552.384C864.951 549.024 863.703 546.504 860.151 546.504C856.911 546.504 855.351 549.096 855.351 552.384C855.351 555.744 856.599 558.264 860.151 558.264C863.391 558.264 864.951 555.672 864.951 552.384ZM862.959 552.432C862.959 555.24 861.999 556.584 860.151 556.584C858.255 556.584 857.319 555.096 857.319 552.312C857.319 549.504 858.303 548.184 860.151 548.184C862.047 548.184 862.959 549.648 862.959 552.432ZM886.505 546.768H884.633L882.545 555.192H882.521L879.881 546.768H878.009L875.393 555.192H875.369L873.353 546.432L871.529 546.888L874.337 558.048L876.113 557.976L878.873 549.528H878.897L881.633 558.048L883.409 557.952L886.505 546.768ZM896.065 557.88L895.705 555.408V550.056C895.705 547.824 894.193 546.504 891.937 546.504C890.497 546.504 889.465 546.888 888.457 547.488L889.153 548.904C889.849 548.544 890.545 548.256 891.481 548.256C893.329 548.256 893.809 549.36 893.809 550.92V551.928L891.793 552.144C889.513 552.384 887.929 553.368 887.929 555.384C887.929 557.16 889.033 558.288 890.905 558.288C892.249 558.288 893.137 557.64 893.953 556.872H893.977L894.145 558.192L896.065 557.88ZM893.809 555.672C893.185 556.224 892.489 556.704 891.361 556.704C890.401 556.704 889.825 556.08 889.825 555.144C889.825 554.112 890.617 553.656 892.057 553.464L893.809 553.224V555.672ZM908.092 558V550.032C908.092 547.728 906.58 546.504 904.684 546.504C903.292 546.504 902.188 547.08 901.348 547.896H901.324L901.132 546.576L899.236 546.888L899.572 549.36V558H901.492V549.288C902.188 548.664 902.956 548.208 904.036 548.208C905.548 548.208 906.172 549.048 906.172 550.704V558H908.092ZM917.493 557.544L916.869 556.08C916.533 556.296 916.077 556.536 915.477 556.536C914.373 556.536 913.989 556.056 913.989 554.544V548.328H917.133V546.768H913.989V544.608L912.093 544.848V546.72L910.437 547.056V548.328H912.093V555.192C912.093 557.112 913.197 558.24 914.925 558.24C916.149 558.24 916.797 557.928 917.493 557.544ZM930.712 557.544L930.088 556.08C929.752 556.296 929.296 556.536 928.696 556.536C927.592 556.536 927.208 556.056 927.208 554.544V548.328H930.352V546.768H927.208V544.608L925.312 544.848V546.72L923.656 547.056V548.328H925.312V555.192C925.312 557.112 926.416 558.24 928.144 558.24C929.368 558.24 930.016 557.928 930.712 557.544ZM941.779 552.384C941.779 549.024 940.531 546.504 936.979 546.504C933.739 546.504 932.179 549.096 932.179 552.384C932.179 555.744 933.427 558.264 936.979 558.264C940.219 558.264 941.779 555.672 941.779 552.384ZM939.787 552.432C939.787 555.24 938.827 556.584 936.979 556.584C935.083 556.584 934.147 555.096 934.147 552.312C934.147 549.504 935.131 548.184 936.979 548.184C938.875 548.184 939.787 549.648 939.787 552.432ZM956.373 554.736C956.373 553.512 955.749 552.624 954.357 551.976L952.029 550.872C951.669 550.704 950.949 550.368 950.949 549.528C950.949 548.568 951.741 548.184 952.965 548.184C953.877 548.184 954.621 548.424 955.389 548.76L956.037 547.104C955.077 546.696 954.213 546.504 952.989 546.504C950.949 546.504 949.077 547.512 949.077 549.648C949.077 551.592 950.421 552.264 951.069 552.552L953.253 553.56C953.997 553.92 954.429 554.232 954.429 555.048C954.429 556.104 953.565 556.608 952.269 556.608C951.405 556.608 950.517 556.32 949.725 555.96L949.149 557.64C950.061 558.072 951.213 558.24 952.365 558.24C954.765 558.24 956.373 556.776 956.373 554.736ZM965.024 557.544L964.4 556.08C964.064 556.296 963.608 556.536 963.008 556.536C961.904 556.536 961.52 556.056 961.52 554.544V548.328H964.664V546.768H961.52V544.608L959.624 544.848V546.72L957.968 547.056V548.328H959.624V555.192C959.624 557.112 960.728 558.24 962.456 558.24C963.68 558.24 964.328 557.928 965.024 557.544ZM974.956 557.88L974.596 555.408V550.056C974.596 547.824 973.084 546.504 970.828 546.504C969.388 546.504 968.356 546.888 967.348 547.488L968.044 548.904C968.74 548.544 969.436 548.256 970.372 548.256C972.22 548.256 972.7 549.36 972.7 550.92V551.928L970.684 552.144C968.404 552.384 966.82 553.368 966.82 555.384C966.82 557.16 967.924 558.288 969.796 558.288C971.14 558.288 972.028 557.64 972.844 556.872H972.868L973.036 558.192L974.956 557.88ZM972.7 555.672C972.076 556.224 971.38 556.704 970.252 556.704C969.292 556.704 968.716 556.08 968.716 555.144C968.716 554.112 969.508 553.656 970.948 553.464L972.7 553.224V555.672ZM986.983 558V550.032C986.983 547.728 985.471 546.504 983.575 546.504C982.183 546.504 981.079 547.08 980.239 547.896H980.215L980.023 546.576L978.127 546.888L978.463 549.36V558H980.383V549.288C981.079 548.664 981.847 548.208 982.927 548.208C984.439 548.208 985.063 549.048 985.063 550.704V558H986.983ZM999.192 557.928L998.856 555.456V541.608L996.6 541.92L996.96 544.392V546.816C996.672 546.744 996.12 546.648 995.4 546.648C991.992 546.648 990 549.024 990 552.888C990 556.224 991.656 558.264 994.128 558.264C995.4 558.264 996.384 557.712 997.152 557.064H997.176L997.344 558.192L999.192 557.928ZM994.8 556.584C992.688 556.584 991.968 555 991.968 552.288C991.968 550.104 993.048 548.256 995.232 548.256C996.048 548.256 996.576 548.424 996.96 548.568V555.744C996.384 556.2 995.736 556.584 994.8 556.584ZM1016.57 552.384C1016.57 549.024 1015.32 546.504 1011.77 546.504C1008.53 546.504 1006.97 549.096 1006.97 552.384C1006.97 555.744 1008.22 558.264 1011.77 558.264C1015.01 558.264 1016.57 555.672 1016.57 552.384ZM1014.58 552.432C1014.58 555.24 1013.62 556.584 1011.77 556.584C1009.87 556.584 1008.94 555.096 1008.94 552.312C1008.94 549.504 1009.92 548.184 1011.77 548.184C1013.66 548.184 1014.58 549.648 1014.58 552.432ZM1028.48 557.88L1028.14 555.408V546.576L1025.88 546.888L1026.22 549.36V555.48C1025.52 556.128 1024.76 556.584 1023.68 556.584C1022.16 556.584 1021.54 555.72 1021.54 554.064V546.576L1019.28 546.888L1019.62 549.36V554.736C1019.62 557.04 1021.13 558.264 1023.03 558.264C1024.42 558.264 1025.52 557.688 1026.36 556.896H1026.39L1026.58 558.192L1028.48 557.88ZM1037.59 557.544L1036.96 556.08C1036.63 556.296 1036.17 556.536 1035.57 556.536C1034.47 556.536 1034.08 556.056 1034.08 554.544V548.328H1037.23V546.768H1034.08V544.608L1032.19 544.848V546.72L1030.53 547.056V548.328H1032.19V555.192C1032.19 557.112 1033.29 558.24 1035.02 558.24C1036.24 558.24 1036.89 557.928 1037.59 557.544ZM1042.36 556.776C1042.36 556.032 1041.73 555.408 1040.99 555.408C1040.22 555.408 1039.6 556.032 1039.6 556.776C1039.6 557.544 1040.22 558.168 1040.99 558.168C1041.73 558.168 1042.36 557.544 1042.36 556.776Z" fill="#F6F5F1"/>
<path d="M820.128 513.712C820.128 510.4 818.736 508.504 816.096 508.504C814.872 508.504 813.912 508.96 813.144 509.632H813.12V503.608L810.864 503.92L811.2 506.392V519.712C812.016 520.024 813.384 520.24 814.632 520.24C818.184 520.24 820.128 517.456 820.128 513.712ZM818.184 514.408C818.184 516.688 817.032 518.584 814.8 518.584C814.08 518.584 813.6 518.512 813.12 518.392V511.168C813.744 510.64 814.44 510.256 815.424 510.256C817.608 510.256 818.184 511.936 818.184 514.408ZM831.001 519.4L830.329 517.888C829.489 518.296 828.769 518.56 827.857 518.56C825.409 518.56 824.329 517.12 824.305 514.12H830.905V512.776C830.905 510.304 829.801 508.504 827.089 508.504C824.257 508.504 822.433 510.832 822.433 514.312C822.433 518.032 824.137 520.264 827.449 520.264C828.817 520.264 829.921 520 831.001 519.4ZM829.105 512.776H824.401C824.641 511.168 825.553 510.04 826.993 510.04C828.481 510.04 829.105 511.096 829.105 512.776ZM841.233 519.88L840.873 517.408V512.056C840.873 509.824 839.361 508.504 837.105 508.504C835.665 508.504 834.633 508.888 833.625 509.488L834.321 510.904C835.017 510.544 835.713 510.256 836.649 510.256C838.497 510.256 838.977 511.36 838.977 512.92V513.928L836.961 514.144C834.681 514.384 833.097 515.368 833.097 517.384C833.097 519.16 834.201 520.288 836.073 520.288C837.417 520.288 838.305 519.64 839.121 518.872H839.145L839.313 520.192L841.233 519.88ZM838.977 517.672C838.353 518.224 837.657 518.704 836.529 518.704C835.569 518.704 834.993 518.08 834.993 517.144C834.993 516.112 835.785 515.656 837.225 515.464L838.977 515.224V517.672ZM853.596 519.88L853.26 517.408V508.576L851.004 508.888L851.34 511.36V517.48C850.644 518.128 849.876 518.584 848.796 518.584C847.284 518.584 846.66 517.72 846.66 516.064V508.576L844.404 508.888L844.74 511.36V516.736C844.74 519.04 846.252 520.264 848.148 520.264C849.54 520.264 850.644 519.688 851.484 518.896H851.508L851.7 520.192L853.596 519.88ZM862.708 519.544L862.084 518.08C861.748 518.296 861.292 518.536 860.692 518.536C859.588 518.536 859.204 518.056 859.204 516.544V510.328H862.348V508.768H859.204V506.608L857.308 506.848V508.72L855.652 509.056V510.328H857.308V517.192C857.308 519.112 858.412 520.24 860.14 520.24C861.364 520.24 862.012 519.928 862.708 519.544ZM867.24 520V508.576L864.984 508.888L865.32 511.36V520H867.24ZM867.624 505.84C867.624 505.072 867.024 504.472 866.304 504.472C865.56 504.472 864.936 505.072 864.936 505.84C864.936 506.608 865.56 507.184 866.304 507.184C867.024 507.184 867.624 506.608 867.624 505.84ZM876.628 503.848C876.196 503.728 875.764 503.632 875.164 503.632C872.932 503.632 871.3 505.12 871.3 507.544V508.72L869.644 509.056V510.328H871.3V520H873.196V510.328H876.292V508.768H873.196V507.4C873.196 505.984 873.988 505.288 875.068 505.288C875.548 505.288 875.86 505.36 876.196 505.48L876.628 503.848ZM887.393 519.88L887.057 517.408V508.576L884.801 508.888L885.137 511.36V517.48C884.441 518.128 883.673 518.584 882.593 518.584C881.081 518.584 880.457 517.72 880.457 516.064V508.576L878.201 508.888L878.537 511.36V516.736C878.537 519.04 880.049 520.264 881.945 520.264C883.337 520.264 884.441 519.688 885.281 518.896H885.305L885.497 520.192L887.393 519.88ZM892.761 520V503.608L890.505 503.92L890.841 506.392V520H892.761ZM908.968 519.88L908.608 517.408V512.056C908.608 509.824 907.096 508.504 904.84 508.504C903.4 508.504 902.368 508.888 901.36 509.488L902.056 510.904C902.752 510.544 903.448 510.256 904.384 510.256C906.232 510.256 906.712 511.36 906.712 512.92V513.928L904.696 514.144C902.416 514.384 900.832 515.368 900.832 517.384C900.832 519.16 901.936 520.288 903.808 520.288C905.152 520.288 906.04 519.64 906.856 518.872H906.88L907.048 520.192L908.968 519.88ZM906.712 517.672C906.088 518.224 905.392 518.704 904.264 518.704C903.304 518.704 902.728 518.08 902.728 517.144C902.728 516.112 903.52 515.656 904.96 515.464L906.712 515.224V517.672ZM920.995 520V512.032C920.995 509.728 919.483 508.504 917.587 508.504C916.195 508.504 915.091 509.08 914.251 509.896H914.227L914.035 508.576L912.139 508.888L912.475 511.36V520H914.395V511.288C915.091 510.664 915.859 510.208 916.939 510.208C918.451 510.208 919.075 511.048 919.075 512.704V520H920.995ZM933.203 519.928L932.867 517.456V503.608L930.611 503.92L930.971 506.392V508.816C930.683 508.744 930.131 508.648 929.411 508.648C926.003 508.648 924.011 511.024 924.011 514.888C924.011 518.224 925.667 520.264 928.139 520.264C929.411 520.264 930.395 519.712 931.163 519.064H931.187L931.355 520.192L933.203 519.928ZM928.811 518.584C926.699 518.584 925.979 517 925.979 514.288C925.979 512.104 927.059 510.256 929.243 510.256C930.059 510.256 930.587 510.424 930.971 510.568V517.744C930.395 518.2 929.747 518.584 928.811 518.584ZM950.58 514.384C950.58 511.024 949.332 508.504 945.78 508.504C942.54 508.504 940.98 511.096 940.98 514.384C940.98 517.744 942.228 520.264 945.78 520.264C949.02 520.264 950.58 517.672 950.58 514.384ZM948.588 514.432C948.588 517.24 947.628 518.584 945.78 518.584C943.884 518.584 942.948 517.096 942.948 514.312C942.948 511.504 943.932 510.184 945.78 510.184C947.676 510.184 948.588 511.648 948.588 514.432ZM958.671 510.424V508.528C957.183 508.528 956.175 509.248 955.407 510.112H955.383L955.191 508.576L953.295 508.888L953.631 511.36V520H955.551V511.552C956.415 510.76 957.375 510.424 958.671 510.424ZM962.982 520V508.576L960.726 508.888L961.062 511.36V520H962.982ZM963.366 505.84C963.366 505.072 962.766 504.472 962.046 504.472C961.302 504.472 960.678 505.072 960.678 505.84C960.678 506.608 961.302 507.184 962.046 507.184C962.766 507.184 963.366 506.608 963.366 505.84ZM975.994 510.184V508.504L972.586 509.032C971.962 508.648 971.17 508.456 970.306 508.456C967.978 508.456 966.298 509.968 966.298 512.248C966.298 513.712 966.874 514.816 967.93 515.464C967.69 515.584 966.49 516.28 966.49 517.672C966.49 518.464 966.802 518.944 967.282 519.256C966.778 519.616 965.77 520.504 965.77 522.016C965.77 523.984 967.21 525.136 969.562 525.136C973.666 525.136 975.922 522.64 975.922 520.432C975.922 518.68 974.77 518.08 972.802 518.08H969.586C968.818 518.08 968.266 517.936 968.266 517.192C968.266 516.616 968.626 516.16 969.034 515.896C969.418 515.992 969.85 516.064 970.306 516.064C972.61 516.064 974.266 514.528 974.266 512.248C974.266 511.432 974.074 510.76 973.738 510.184H975.994ZM974.242 520.72C974.242 521.944 972.754 523.576 969.994 523.576C968.266 523.576 967.474 522.88 967.474 521.584C967.474 520.6 968.074 519.928 968.386 519.664C968.698 519.712 969.01 519.736 969.346 519.736H972.37C973.546 519.736 974.242 519.904 974.242 520.72ZM972.466 512.248C972.466 513.784 971.53 514.624 970.306 514.624C968.986 514.624 968.098 513.832 968.098 512.248C968.098 510.736 969.058 509.896 970.306 509.896C971.602 509.896 972.466 510.688 972.466 512.248ZM980.513 520V508.576L978.257 508.888L978.593 511.36V520H980.513ZM980.897 505.84C980.897 505.072 980.297 504.472 979.577 504.472C978.833 504.472 978.209 505.072 978.209 505.84C978.209 506.608 978.833 507.184 979.577 507.184C980.297 507.184 980.897 506.608 980.897 505.84ZM992.878 520V512.032C992.878 509.728 991.366 508.504 989.47 508.504C988.078 508.504 986.974 509.08 986.134 509.896H986.11L985.918 508.576L984.021 508.888L984.358 511.36V520H986.278V511.288C986.974 510.664 987.742 510.208 988.822 510.208C990.334 510.208 990.958 511.048 990.958 512.704V520H992.878ZM1004.03 519.88L1003.67 517.408V512.056C1003.67 509.824 1002.16 508.504 999.902 508.504C998.462 508.504 997.43 508.888 996.422 509.488L997.118 510.904C997.814 510.544 998.51 510.256 999.446 510.256C1001.29 510.256 1001.77 511.36 1001.77 512.92V513.928L999.758 514.144C997.478 514.384 995.894 515.368 995.894 517.384C995.894 519.16 996.998 520.288 998.87 520.288C1000.21 520.288 1001.1 519.64 1001.92 518.872H1001.94L1002.11 520.192L1004.03 519.88ZM1001.77 517.672C1001.15 518.224 1000.45 518.704 999.326 518.704C998.366 518.704 997.79 518.08 997.79 517.144C997.79 516.112 998.582 515.656 1000.02 515.464L1001.77 515.224V517.672ZM1009.41 520V503.608L1007.15 503.92L1007.49 506.392V520H1009.41ZM1031.71 508.768H1029.84L1027.75 517.192H1027.73L1025.09 508.768H1023.22L1020.6 517.192H1020.58L1018.56 508.432L1016.74 508.888L1019.54 520.048L1021.32 519.976L1024.08 511.528H1024.1L1026.84 520.048L1028.62 519.952L1031.71 508.768ZM1041.85 519.4L1041.17 517.888C1040.33 518.296 1039.61 518.56 1038.7 518.56C1036.25 518.56 1035.17 517.12 1035.15 514.12H1041.75V512.776C1041.75 510.304 1040.65 508.504 1037.93 508.504C1035.1 508.504 1033.28 510.832 1033.28 514.312C1033.28 518.032 1034.98 520.264 1038.29 520.264C1039.66 520.264 1040.77 520 1041.85 519.4ZM1039.95 512.776H1035.25C1035.49 511.168 1036.4 510.04 1037.84 510.04C1039.33 510.04 1039.95 511.096 1039.95 512.776ZM1053.59 513.712C1053.59 510.4 1052.2 508.504 1049.56 508.504C1048.33 508.504 1047.37 508.96 1046.61 509.632H1046.58V503.608L1044.33 503.92L1044.66 506.392V519.712C1045.48 520.024 1046.85 520.24 1048.09 520.24C1051.65 520.24 1053.59 517.456 1053.59 513.712ZM1051.65 514.408C1051.65 516.688 1050.49 518.584 1048.26 518.584C1047.54 518.584 1047.06 518.512 1046.58 518.392V511.168C1047.21 510.64 1047.9 510.256 1048.89 510.256C1051.07 510.256 1051.65 511.936 1051.65 514.408ZM1063.17 516.736C1063.17 515.512 1062.54 514.624 1061.15 513.976L1058.82 512.872C1058.46 512.704 1057.74 512.368 1057.74 511.528C1057.74 510.568 1058.53 510.184 1059.76 510.184C1060.67 510.184 1061.41 510.424 1062.18 510.76L1062.83 509.104C1061.87 508.696 1061.01 508.504 1059.78 508.504C1057.74 508.504 1055.87 509.512 1055.87 511.648C1055.87 513.592 1057.21 514.264 1057.86 514.552L1060.05 515.56C1060.79 515.92 1061.22 516.232 1061.22 517.048C1061.22 518.104 1060.36 518.608 1059.06 518.608C1058.2 518.608 1057.31 518.32 1056.52 517.96L1055.94 519.64C1056.85 520.072 1058.01 520.24 1059.16 520.24C1061.56 520.24 1063.17 518.776 1063.17 516.736ZM1068.17 520V508.576L1065.91 508.888L1066.25 511.36V520H1068.17ZM1068.55 505.84C1068.55 505.072 1067.95 504.472 1067.23 504.472C1066.49 504.472 1065.87 505.072 1065.87 505.84C1065.87 506.608 1066.49 507.184 1067.23 507.184C1067.95 507.184 1068.55 506.608 1068.55 505.84ZM1077.63 519.544L1077.01 518.08C1076.67 518.296 1076.21 518.536 1075.61 518.536C1074.51 518.536 1074.13 518.056 1074.13 516.544V510.328H1077.27V508.768H1074.13V506.608L1072.23 506.848V508.72L1070.57 509.056V510.328H1072.23V517.192C1072.23 519.112 1073.33 520.24 1075.06 520.24C1076.29 520.24 1076.93 519.928 1077.63 519.544ZM1087.67 519.4L1086.99 517.888C1086.15 518.296 1085.43 518.56 1084.52 518.56C1082.07 518.56 1080.99 517.12 1080.97 514.12H1087.57V512.776C1087.57 510.304 1086.47 508.504 1083.75 508.504C1080.92 508.504 1079.1 510.832 1079.1 514.312C1079.1 518.032 1080.8 520.264 1084.11 520.264C1085.48 520.264 1086.59 520 1087.67 519.4ZM1085.77 512.776H1081.07C1081.31 511.168 1082.22 510.04 1083.66 510.04C1085.15 510.04 1085.77 511.096 1085.77 512.776ZM1097.03 516.736C1097.03 515.512 1096.41 514.624 1095.02 513.976L1092.69 512.872C1092.33 512.704 1091.61 512.368 1091.61 511.528C1091.61 510.568 1092.4 510.184 1093.63 510.184C1094.54 510.184 1095.28 510.424 1096.05 510.76L1096.7 509.104C1095.74 508.696 1094.87 508.504 1093.65 508.504C1091.61 508.504 1089.74 509.512 1089.74 511.648C1089.74 513.592 1091.08 514.264 1091.73 514.552L1093.91 515.56C1094.66 515.92 1095.09 516.232 1095.09 517.048C1095.09 518.104 1094.23 518.608 1092.93 518.608C1092.07 518.608 1091.18 518.32 1090.39 517.96L1089.81 519.64C1090.72 520.072 1091.87 520.24 1093.03 520.24C1095.43 520.24 1097.03 518.776 1097.03 516.736Z" fill="#FFAD31"/>
</svg>
